<mxfile host="app.diagrams.net" modified="2023-11-06T16:31:41.575Z" agent="Mozilla/5.0 (Windows NT 10.0; Win64; x64) AppleWebKit/537.36 (KHTML, like Gecko) Chrome/119.0.0.0 Safari/537.36 Edg/119.0.0.0" etag="F23NsBbt7EovrsW49B5f" version="22.0.8" type="github">
  <diagram name="第 1 页" id="BW1qWaM-W4W9XnXUhrCX">
    <mxGraphModel dx="986" dy="533" grid="1" gridSize="10" guides="1" tooltips="1" connect="1" arrows="1" fold="1" page="1" pageScale="1" pageWidth="1169" pageHeight="1654" math="0" shadow="0">
      <root>
        <mxCell id="0" />
        <mxCell id="1" parent="0" />
        <mxCell id="A-21MRqyuseBxnLRrRVx-5" style="edgeStyle=orthogonalEdgeStyle;rounded=0;orthogonalLoop=1;jettySize=auto;html=1;exitX=1;exitY=0.5;exitDx=0;exitDy=0;" edge="1" parent="1" source="A-21MRqyuseBxnLRrRVx-1" target="A-21MRqyuseBxnLRrRVx-2">
          <mxGeometry relative="1" as="geometry" />
        </mxCell>
        <mxCell id="A-21MRqyuseBxnLRrRVx-10" value="管理员添加新学生" style="edgeLabel;html=1;align=center;verticalAlign=middle;resizable=0;points=[];" vertex="1" connectable="0" parent="A-21MRqyuseBxnLRrRVx-5">
          <mxGeometry x="0.0833" y="-2" relative="1" as="geometry">
            <mxPoint x="-13" y="-37" as="offset" />
          </mxGeometry>
        </mxCell>
        <mxCell id="A-21MRqyuseBxnLRrRVx-1" value="" style="ellipse;fillColor=strokeColor;html=1;" vertex="1" parent="1">
          <mxGeometry x="170" y="190" width="30" height="30" as="geometry" />
        </mxCell>
        <mxCell id="A-21MRqyuseBxnLRrRVx-6" style="edgeStyle=orthogonalEdgeStyle;rounded=0;orthogonalLoop=1;jettySize=auto;html=1;" edge="1" parent="1" source="A-21MRqyuseBxnLRrRVx-2" target="A-21MRqyuseBxnLRrRVx-3">
          <mxGeometry relative="1" as="geometry" />
        </mxCell>
        <mxCell id="A-21MRqyuseBxnLRrRVx-11" value="管理员修改学生信息" style="edgeLabel;html=1;align=center;verticalAlign=middle;resizable=0;points=[];" vertex="1" connectable="0" parent="A-21MRqyuseBxnLRrRVx-6">
          <mxGeometry x="-0.0762" y="1" relative="1" as="geometry">
            <mxPoint y="-34" as="offset" />
          </mxGeometry>
        </mxCell>
        <mxCell id="A-21MRqyuseBxnLRrRVx-2" value="新建状态" style="html=1;align=center;verticalAlign=top;rounded=1;absoluteArcSize=1;arcSize=10;dashed=0;whiteSpace=wrap;" vertex="1" parent="1">
          <mxGeometry x="280" y="185" width="140" height="40" as="geometry" />
        </mxCell>
        <mxCell id="A-21MRqyuseBxnLRrRVx-7" style="edgeStyle=orthogonalEdgeStyle;rounded=0;orthogonalLoop=1;jettySize=auto;html=1;" edge="1" parent="1" source="A-21MRqyuseBxnLRrRVx-3" target="A-21MRqyuseBxnLRrRVx-4">
          <mxGeometry relative="1" as="geometry" />
        </mxCell>
        <mxCell id="A-21MRqyuseBxnLRrRVx-12" value="管理员删除学生信息" style="edgeLabel;html=1;align=center;verticalAlign=middle;resizable=0;points=[];" vertex="1" connectable="0" parent="A-21MRqyuseBxnLRrRVx-7">
          <mxGeometry x="0.0952" relative="1" as="geometry">
            <mxPoint y="-35" as="offset" />
          </mxGeometry>
        </mxCell>
        <mxCell id="A-21MRqyuseBxnLRrRVx-3" value="修改状态" style="html=1;align=center;verticalAlign=top;rounded=1;absoluteArcSize=1;arcSize=10;dashed=0;whiteSpace=wrap;" vertex="1" parent="1">
          <mxGeometry x="490" y="185" width="140" height="40" as="geometry" />
        </mxCell>
        <mxCell id="A-21MRqyuseBxnLRrRVx-9" style="edgeStyle=orthogonalEdgeStyle;rounded=0;orthogonalLoop=1;jettySize=auto;html=1;" edge="1" parent="1" source="A-21MRqyuseBxnLRrRVx-4" target="A-21MRqyuseBxnLRrRVx-8">
          <mxGeometry relative="1" as="geometry" />
        </mxCell>
        <mxCell id="A-21MRqyuseBxnLRrRVx-4" value="删除状态" style="html=1;align=center;verticalAlign=top;rounded=1;absoluteArcSize=1;arcSize=10;dashed=0;whiteSpace=wrap;" vertex="1" parent="1">
          <mxGeometry x="700" y="185" width="140" height="40" as="geometry" />
        </mxCell>
        <mxCell id="A-21MRqyuseBxnLRrRVx-8" value="" style="ellipse;html=1;shape=endState;fillColor=strokeColor;" vertex="1" parent="1">
          <mxGeometry x="920" y="190" width="30" height="30" as="geometry" />
        </mxCell>
      </root>
    </mxGraphModel>
  </diagram>
</mxfile>
